<?xml version="1.0" encoding="UTF-8" standalone="no"?>
<svg width="1000px" height="400px" viewBox="0 0 1000 400" version="1.1" xmlns="http://www.w3.org/2000/svg" xmlns:xlink="http://www.w3.org/1999/xlink" xmlns:sketch="http://www.bohemiancoding.com/sketch/ns">
    <title>spritesheet</title>
    <description>Created with Sketch (http://www.bohemiancoding.com/sketch)</description>
    <defs></defs>
    <g id="Spritesheet" stroke="none" stroke-width="1" fill="none" fill-rule="evenodd" sketch:type="MSPage">
        <g id="spritesheet" sketch:type="MSArtboardGroup">
            <path d="M374.186462,170.610933 C373.749542,170.273524 373.090551,170.320971 372.708181,170.72363 L362,182 L372.708181,193.27637 C373.087693,193.67602 373.692438,193.655862 374.048878,193.242973 L375.331672,191.757027 C375.692606,191.338932 375.657759,190.700554 375.245493,190.323537 L366.143763,182 L375.277429,172.719175 C375.668321,172.321986 375.625093,171.721909 375.194087,171.389067 L374.186462,170.610933 Z" id="Arrow" fill="#0067AA" sketch:type="MSShapeGroup"></path>
            <path d="M425.419043,193.209339 C425.843922,193.561791 426.504168,193.537372 426.900357,193.148303 L437.995555,182.252512 L427.687436,170.609301 C427.322103,170.19665 426.717023,170.19569 426.346391,170.595888 L425.012519,172.03616 C424.637214,172.441404 424.649761,173.080609 425.048617,173.471784 L433.854316,182.107897 L424.402318,191.064307 C423.997803,191.447613 424.020061,192.048833 424.439188,192.396514 L425.419043,193.209339 Z" id="Arrow" fill="#0067AA" sketch:type="MSShapeGroup"></path>
            <g id="LendPal-Icon" sketch:type="MSLayerGroup" transform="translate(406.000000, 6.000000)">
                <rect id="Rectangle-1" stroke="#979797" fill="#D09700" sketch:type="MSShapeGroup" x="0" y="0" width="100" height="100" rx="16"></rect>
                <path d="M27.8255584,22.1512404 L21.2890625,81.8359375 L67.5409762,81.8359375 L78.7109375,64.1911768 L67.5409762,68.4055795 L40.3193669,68.4055795 L45.6147559,18.2617188 L27.8255584,22.1512404 Z" id="Path-1" fill="#F0EBDB" sketch:type="MSShapeGroup"></path>
            </g>
            <g id="Calendar-Icon" sketch:type="MSLayerGroup" transform="translate(522.000000, 11.000000)" stroke-width="2" stroke="#F3F3F5">
                <g id="Row-1" sketch:type="MSShapeGroup">
                    <rect id="Rectangle-17" x="0" y="0" width="21.7391304" height="16.3432836"></rect>
                    <rect id="Rectangle-17-copy" x="19.5652174" y="0" width="21.7391304" height="16.3432836"></rect>
                    <rect id="Rectangle-17-copy-2" x="39.1304348" y="0" width="21.7391304" height="16.3432836"></rect>
                    <rect id="Rectangle-17-copy-3" x="58.6956522" y="0" width="21.7391304" height="16.3432836"></rect>
                    <rect id="Rectangle-17-copy-4" x="78.2608696" y="0" width="21.7391304" height="16.3432836"></rect>
                </g>
                <g id="Row-2" transform="translate(0.000000, 14.164179)" sketch:type="MSShapeGroup">
                    <rect id="Rectangle-17" x="0" y="1.42108547e-14" width="21.7391304" height="16.3432836"></rect>
                    <rect id="Rectangle-17-copy" x="19.5652174" y="1.42108547e-14" width="21.7391304" height="16.3432836"></rect>
                    <rect id="Rectangle-17-copy-2" x="39.1304348" y="1.42108547e-14" width="21.7391304" height="16.3432836"></rect>
                    <rect id="Rectangle-17-copy-3" x="58.6956522" y="1.42108547e-14" width="21.7391304" height="16.3432836"></rect>
                    <rect id="Rectangle-17-copy-4" x="78.2608696" y="1.42108547e-14" width="21.7391304" height="16.3432836"></rect>
                </g>
                <g id="Row-3" transform="translate(0.000000, 28.328358)" sketch:type="MSShapeGroup">
                    <rect id="Rectangle-17" x="0" y="0" width="21.7391304" height="16.3432836"></rect>
                    <rect id="Rectangle-17-copy" x="19.5652174" y="0" width="21.7391304" height="16.3432836"></rect>
                    <rect id="Rectangle-17-copy-2" x="39.1304348" y="0" width="21.7391304" height="16.3432836"></rect>
                    <rect id="Rectangle-17-copy-3" x="58.6956522" y="0" width="21.7391304" height="16.3432836"></rect>
                    <rect id="Rectangle-17-copy-4" x="78.2608696" y="0" width="21.7391304" height="16.3432836"></rect>
                </g>
                <g id="Row-4" transform="translate(0.000000, 42.492537)" sketch:type="MSShapeGroup">
                    <rect id="Rectangle-17" x="0" y="0" width="21.7391304" height="16.3432836"></rect>
                    <rect id="Rectangle-17-copy" x="19.5652174" y="0" width="21.7391304" height="16.3432836"></rect>
                    <rect id="Rectangle-17-copy-2" x="39.1304348" y="0" width="21.7391304" height="16.3432836"></rect>
                    <rect id="Rectangle-17-copy-3" x="58.6956522" y="0" width="21.7391304" height="16.3432836"></rect>
                    <rect id="Rectangle-17-copy-4" x="78.2608696" y="0" width="21.7391304" height="16.3432836"></rect>
                </g>
                <g id="Row-5" transform="translate(0.000000, 56.656716)" sketch:type="MSShapeGroup">
                    <rect id="Rectangle-17" x="0" y="0" width="21.7391304" height="16.3432836"></rect>
                    <rect id="Rectangle-17-copy" x="19.5652174" y="0" width="21.7391304" height="16.3432836"></rect>
                    <rect id="Rectangle-17-copy-2" x="39.1304348" y="0" width="21.7391304" height="16.3432836"></rect>
                </g>
            </g>
            <g id="TabBarController-Icon" sketch:type="MSLayerGroup" transform="translate(649.000000, 9.000000)">
                <path d="M50.76614,0.377301594 C61.7003854,0.377301594 51.547157,9.9417198 64.0434375,15.489114 C74.1966654,21.0365083 78.101753,5.97929534 84.3498933,14.6966291 C95.2841387,21.8289932 78.101753,24.9989327 84.3498933,35.3012363 C87.4739634,47.9809946 99.9702439,38.4711759 99.9702439,50.3584492 C100.751261,61.4532377 85.9119267,52.4901829 84.3498917,62.0000016 C73,62 87,62.0000016 75,62.0000016 C63,62.0000032 79,62.0000016 68,62.0000016 L49,62.0000016 C49,62.0000016 43,62 34,62.0000016 C24,62 35.9268074,62.0000016 24,62.0000016 C12.0731926,62.0000028 27,62 15.6203508,62.0000016 C10.9342457,50.1127282 0,61.4532377 0,51.1509341 C0,36.8862061 11.715263,48.7734795 15.6203506,36.0937212 C21.0874733,24.2064478 5.46712271,21.8289932 15.6203506,13.9041443 C24.2115434,5.97929534 21.0874733,19.4515385 35.9268064,17.0740838 C49.9851219,9.9417198 36.7078244,-0.415183297 50.76614,0.377301594 Z M49.9888415,61.8862061 C66.8924898,61.8862088 67.4888415,60.9229966 67.4888415,51.3036226 C67.4888415,41.6842486 59.6538251,33.8862061 49.9888415,33.8862061 C40.3238579,33.8862061 32.4888415,41.6842486 32.4888415,51.3036226 C32.4888415,60.9229966 33.0851931,61.886204 49.9888415,61.8862061 Z" id="Settings" stroke="#F3F3F5" stroke-width="2" sketch:type="MSShapeGroup"></path>
                <g id="TabBar" transform="translate(0.000000, 61.000000)" sketch:type="MSShapeGroup">
                    <g id="Tab-1" transform="translate(0.000000, -0.073171)">
                        <rect id="Rectangle-38" stroke="#F3F3F5" stroke-width="2" x="0" y="0" width="35.7142857" height="27.0731707"></rect>
                        <rect id="Rectangle-41" fill="#F3F3F5" x="14.2857143" y="9.02439024" width="7.14285714" height="7.2195122"></rect>
                    </g>
                    <g id="Tab-2" transform="translate(32.142857, -0.073171)">
                        <rect id="Rectangle-38-copy" stroke="#F3F3F5" stroke-width="2" x="0" y="0" width="35.7142857" height="27.0731707"></rect>
                        <rect id="Rectangle-41-copy" fill="#F3F3F5" x="14.2857143" y="9.02439024" width="7.14285714" height="7.2195122"></rect>
                    </g>
                    <g id="Tab-3" transform="translate(64.285714, -0.073171)">
                        <rect id="Rectangle-38-copy-2" stroke="#F3F3F5" stroke-width="2" x="0" y="0" width="35.7142857" height="27.0731707"></rect>
                        <rect id="Rectangle-41-copy-2" fill="#F3F3F5" x="14.2857143" y="9.02439024" width="7.14285714" height="7.2195122"></rect>
                    </g>
                </g>
            </g>
            <g id="Keyboard-Avoiding-Icon" sketch:type="MSLayerGroup" transform="translate(769.000000, 10.000000)" stroke="#F3F3F5" stroke-width="2">
                <g id="Keyboard" transform="translate(0.000000, 51.000000)" sketch:type="MSShapeGroup">
                    <rect id="Rectangle-43" x="0" y="0" width="100" height="52"></rect>
                    <rect id="Rectangle-54" x="17" y="36" width="66" height="8"></rect>
                    <rect id="Rectangle-44" x="10" y="9" width="9" height="7"></rect>
                    <rect id="Rectangle-44-copy" x="26" y="9" width="9" height="7"></rect>
                    <rect id="Rectangle-44-copy-2" x="42" y="9" width="9" height="7"></rect>
                    <rect id="Rectangle-44-copy-3" x="58" y="9" width="9" height="7"></rect>
                    <rect id="Rectangle-44-copy-4" x="74" y="9" width="15" height="7"></rect>
                    <rect id="Rectangle-44-copy" x="10" y="22" width="9" height="7"></rect>
                    <rect id="Rectangle-44-copy-2" x="26" y="22" width="9" height="7"></rect>
                    <rect id="Rectangle-44-copy-3" x="42" y="22" width="9" height="7"></rect>
                    <rect id="Rectangle-44-copy-4" x="58" y="22" width="9" height="7"></rect>
                    <rect id="Rectangle-44-copy-5" x="74" y="22" width="15" height="7"></rect>
                </g>
                <path d="M53.5,26.9230769 L53.5,46 L91,46 L91,0 L8,0 L8,46 L47.5,46 L47.5,26.9230769 L43,26.9230769 L50.5,20 L58,26.9230769 L53.5,26.9230769 Z" id="Content" sketch:type="MSShapeGroup"></path>
            </g>
            <path d="M11,57.8726115 L19.0377193,18.0849256 C19.0377193,18.0849256 43.7096491,17.8726115 43.7526316,18.0849256 C70,17 71,61 39.5833333,57.8726115 C31.9754386,56.4713376 24.6254386,48.5732484 22.4333333,34.2632696 C26.3447368,34.3057325 34.8122807,34.3481953 37.4772509,34.2632696 C46.6324561,31.5456476 42.9789474,22.8832272 39.5833333,21.6518047 C35.8438596,21.6942675 22.1324561,21.6518047 22.1324561,21.6518047 L15.3412281,57.8726115 L11,57.8726115 Z M27.1184211,37.5329093 C33.05,37.617835 35.8868421,37.7876858 40.5807693,37.5329087 C43.1508772,37.0233546 51.145614,33.2441614 45.9017544,22.7558386 C61,23 62.4929825,45.5583864 50.3289474,52.1401274 C40.2710526,56.4288747 32.4052632,51.9702766 27.1184211,37.5329093 Z" id="RD-Logo" fill="#F3F3F5" sketch:type="MSShapeGroup"></path>
            <path d="M13,129.872611 L21.0377193,90.0849256 C21.0377193,90.0849256 45.7096491,89.8726115 45.7526316,90.0849256 C72,89 73,133 41.5833333,129.872611 C33.9754386,128.471338 26.6254386,120.573248 24.4333333,106.26327 C28.3447368,106.305732 36.8122807,106.348195 39.4772509,106.26327 C48.6324561,103.545648 44.9789474,94.8832272 41.5833333,93.6518047 C37.8438596,93.6942675 24.1324561,93.6518047 24.1324561,93.6518047 L17.3412281,129.872611 L13,129.872611 Z M29.1184211,109.532909 C35.05,109.617835 37.8868421,109.787686 42.5807693,109.532909 C45.1508772,109.023355 53.145614,105.244161 47.9017544,94.7558386 C63,95 64.4929825,117.558386 52.3289474,124.140127 C42.2710526,128.428875 34.4052632,123.970277 29.1184211,109.532909 Z" id="RD-Logo-copy" fill="#0067AA" sketch:type="MSShapeGroup"></path>
            <path d="M13,201.872611 L21.0377193,162.084926 C21.0377193,162.084926 45.7096491,161.872611 45.7526316,162.084926 C72,161 73,205 41.5833333,201.872611 C33.9754386,200.471338 26.6254386,192.573248 24.4333333,178.26327 C28.3447368,178.305732 36.8122807,178.348195 39.4772509,178.26327 C48.6324561,175.545648 44.9789474,166.883227 41.5833333,165.651805 C37.8438596,165.694268 24.1324561,165.651805 24.1324561,165.651805 L17.3412281,201.872611 L13,201.872611 Z M29.1184211,181.532909 C35.05,181.617835 37.8868421,181.787686 42.5807693,181.532909 C45.1508772,181.023355 53.145614,177.244161 47.9017544,166.755839 C63,167 64.4929825,189.558386 52.3289474,196.140127 C42.2710526,200.428875 34.4052632,195.970277 29.1184211,181.532909 Z" id="RD-Logo-copy-2" fill="#99BFDC" sketch:type="MSShapeGroup"></path>
            <path d="M120,68 C136.568543,68 150,54.5685433 150,38 C150,21.4314567 136.568543,8 120,8 C103.431457,8 90,21.4314567 90,38 C90,54.5685433 103.431457,68 120,68 Z M124.167204,26.28308 C121.547942,27.2364075 119.892568,29.6938738 120.081155,32.3843758 L120.144017,33.4224435 L119.096312,33.2953331 C115.282666,32.8080769 111.950964,31.1556426 109.122161,28.3804004 L107.73919,27.0033719 L107.382971,28.0202545 C106.628623,30.2870554 107.110567,32.6809665 108.682125,34.2910307 C109.520289,35.180803 109.331702,35.3079133 107.885869,34.778287 C107.382971,34.6088065 106.942934,34.4816962 106.901026,34.5452514 C106.754348,34.6935467 107.257246,36.6213867 107.655374,37.3840487 C108.20018,38.4433014 109.310748,39.4813691 110.526085,40.0957357 L111.552836,40.582992 L110.337499,40.604177 C109.164069,40.604177 109.122161,40.6253621 109.247885,41.0702482 C109.666967,42.4472768 111.322341,43.9090455 113.166302,44.5445972 L114.465456,44.9894833 L113.333935,45.6674051 C111.657607,46.6419176 109.687921,47.192729 107.718236,47.2350991 C106.775302,47.2562842 106,47.3410244 106,47.4045796 C106,47.6164301 108.5564,48.8027932 110.044141,49.2688644 C114.507364,50.645893 119.808751,50.0527114 123.79003,47.7011703 C126.618834,46.027551 129.447637,42.7014974 130.767745,39.4813691 C131.480185,37.7653797 132.192624,34.6299916 132.192624,33.1258527 C132.192624,32.1513402 132.255487,32.0242299 133.428916,30.8590518 C134.120401,30.1811301 134.769978,29.4396532 134.895703,29.2278026 C135.105244,28.8252866 135.08429,28.8252866 134.015631,29.1854325 C132.234532,29.8209842 131.983083,29.7362439 132.863155,28.7829165 C133.512732,28.1049947 134.288034,26.8762616 134.288034,26.5161156 C134.288034,26.4525605 133.973723,26.5584857 133.617503,26.7491512 C133.240329,26.9610018 132.402165,27.2787776 131.773542,27.4694431 L130.642021,27.829589 L129.61527,27.1304822 C129.049509,26.7491512 128.253254,26.3254501 127.834172,26.1983398 C126.765512,25.901749 125.131093,25.9441191 124.167204,26.28308 Z" id="Twitter" fill="#F3F3F5" sketch:type="MSShapeGroup"></path>
            <path d="M200,68 C216.568543,68 230,54.5685433 230,38 C230,21.4314567 216.568543,8 200,8 C183.431457,8 170,21.4314567 170,38 C170,54.5685433 183.431457,68 200,68 Z M187.543454,38.5685404 C187.102007,37.2918976 186.906455,35.8297516 186.906455,34.1963718 C186.906455,31.2968136 187.826134,30.2028201 189.06044,28.6569598 C188.116559,25.351197 189.39927,23.0918628 189.39927,23.0918628 C189.39927,23.0918628 191.383841,22.6875608 195.135165,25.3274146 C197.16814,24.4712458 202.589408,24.3998984 205.154829,25.1371548 C206.727965,24.1145088 209.608014,22.6637784 210.769714,23.0699829 C211.084341,23.5675121 211.762,25.0182425 211.18115,28.205093 C211.57516,28.9042975 213.625561,30.3930799 213.633305,34.6025764 C213.60039,36.1550957 213.435816,37.4659853 213.13087,38.5742482 C213.188904,38.5737742 212.741417,39.9484966 212.635211,39.9450695 C211.275054,42.880682 208.485037,43.9766732 203.976672,44.4323453 C205.43751,45.336079 205.85669,46.470027 205.85669,49.5379651 C205.85669,52.6059032 205.815062,53.0178155 205.824743,53.7236791 C205.840233,54.8814096 207.567294,55.4360167 207.502432,55.8089257 C207.437571,56.1808835 206.057083,56.1209517 205.41234,55.8992991 C203.584598,55.2733446 203.767566,53.7788544 203.767566,53.7788544 L203.706577,49.6768547 C203.706577,49.6768547 203.831459,47.4688905 203.000844,47.4688905 L203.000844,54.1831564 C203.000844,55.6424485 204.041533,56.0857536 204.041533,56.62514 C204.041533,57.5526562 202.142153,56.5376205 201.556463,55.9592309 C200.664858,55.0792797 200.766507,53.2128317 200.787805,51.7373675 C200.808134,50.3123222 200.774251,47.1949165 200.774251,47.1949165 L200.169199,47.2072834 C200.169199,47.2072834 200.417029,54.0166791 199.849732,55.2571725 C199.115924,56.8505978 196.901917,57.3985458 196.901917,56.6727049 C196.901917,56.1846887 197.446948,56.3397504 197.74899,55.2457569 C198.006501,54.3153869 197.918405,47.3737607 197.918405,47.3737607 C197.918405,47.3737607 197.2088,47.785673 197.2088,49.0860982 C197.2088,49.6806599 197.192342,53.0806012 197.192342,54.0918317 C197.192342,55.3646693 195.352984,56.0895588 194.469123,56.0895588 C194.021869,56.0895588 193.465221,56.067679 193.465221,55.8346108 C193.465221,55.2457569 195.146782,54.9004355 195.146782,53.6761142 C195.146782,52.6144649 195.123548,49.8832865 195.123548,49.8832865 C195.123548,49.8832865 194.275507,50.0259813 193.065402,50.0259813 C190.015939,50.0259813 189.051728,48.113871 188.592856,47.04366 C187.995549,45.6500075 187.221082,44.9955141 186.398211,44.4722998 C185.892871,44.1507609 185.776701,43.772144 186.361424,43.6636959 C189.06044,43.1642642 189.750684,46.6717023 191.553256,47.2310659 C192.839839,47.62966 194.494293,47.4574749 195.317164,46.9342607 C195.42559,45.8630984 196.211674,44.9365335 196.866098,44.4485173 C192.281254,44.0156764 189.562876,42.4507902 188.153346,39.9355566 C188.135504,39.9359777 187.489338,38.5684093 187.543454,38.5685404 Z" id="Github" fill="#F3F3F5" sketch:type="MSShapeGroup"></path>
            <path d="M280,68 C296.568543,68 310,54.5685433 310,38 C310,21.4314567 296.568543,8 280,8 C263.431457,8 250,21.4314567 250,38 C250,54.5685433 263.431457,68 280,68 Z M272.353556,52.1369537 L265.564711,52.1369537 L265.564711,31.7098144 L272.353556,31.7098144 L272.353556,52.1369537 L272.353556,52.1369537 Z M268.959269,28.9216886 L268.915885,28.9216886 C266.636712,28.9216886 265.163269,27.3522579 265.163269,25.3908761 C265.163269,23.3880081 266.681588,21.862504 269.004009,21.862504 C271.326431,21.862504 272.756625,23.3880081 272.800687,25.3908761 C272.800687,27.3522579 271.326431,28.9216886 268.959269,28.9216886 Z M296.836459,52.1369537 L290.047885,52.1369537 L290.047885,41.2084226 C290.047885,38.4634101 289.065499,36.5902885 286.607909,36.5902885 C284.732347,36.5902885 283.615198,37.8530458 283.124548,39.0726898 C282.945045,39.5097877 282.900983,40.1187963 282.900983,40.7292961 L282.900983,52.137496 L276.111323,52.137496 C276.111323,52.137496 276.200804,33.6271338 276.111323,31.7103567 L282.900983,31.7103567 L282.900983,34.6036896 C283.802022,33.2128128 285.415787,31.2301456 289.020217,31.2301456 C293.48759,31.2301456 296.836731,34.1503226 296.836731,40.4246563 L296.836459,52.1369537 Z" id="LinkedIN" fill="#F3F3F5" sketch:type="MSShapeGroup"></path>
            <path d="M360,68 C376.568543,68 390,54.5685433 390,38 C390,21.4314567 376.568543,8 360,8 C343.431457,8 330,21.4314567 330,38 C330,54.5685433 343.431457,68 360,68 Z M343,28.516129 L343,49.483871 L352.488372,38.9133564 L343,28.516129 Z M377,49.483871 L377,28.516129 L367.511628,39.0866436 L377,49.483871 Z M345.372093,52 L374.627907,52 L365.201034,41.2755156 C365.201034,41.2755156 362.833174,44.7174927 360.162532,44.6716023 C357.49189,44.6257121 354.798966,41.0967742 354.798966,41.0967742 L345.372093,52 Z M345.372093,26 C345.372093,26 359.239714,41.5889828 360.230258,41.0750603 C361.220802,41.7602903 375.418605,26 375.418605,26 L345.372093,26 Z" id="Mail" fill="#F3F3F5" sketch:type="MSShapeGroup"></path>
            <path d="M120,140 C136.568543,140 150,126.568543 150,110 C150,93.4314567 136.568543,80 120,80 C103.431457,80 90,93.4314567 90,110 C90,126.568543 103.431457,140 120,140 Z M124.167204,98.28308 C121.547942,99.2364075 119.892568,101.693874 120.081155,104.384376 L120.144017,105.422443 L119.096312,105.295333 C115.282666,104.808077 111.950964,103.155643 109.122161,100.3804 L107.73919,99.0033719 L107.382971,100.020255 C106.628623,102.287055 107.110567,104.680967 108.682125,106.291031 C109.520289,107.180803 109.331702,107.307913 107.885869,106.778287 C107.382971,106.608807 106.942934,106.481696 106.901026,106.545251 C106.754348,106.693547 107.257246,108.621387 107.655374,109.384049 C108.20018,110.443301 109.310748,111.481369 110.526085,112.095736 L111.552836,112.582992 L110.337499,112.604177 C109.164069,112.604177 109.122161,112.625362 109.247885,113.070248 C109.666967,114.447277 111.322341,115.909046 113.166302,116.544597 L114.465456,116.989483 L113.333935,117.667405 C111.657607,118.641918 109.687921,119.192729 107.718236,119.235099 C106.775302,119.256284 106,119.341024 106,119.40458 C106,119.61643 108.5564,120.802793 110.044141,121.268864 C114.507364,122.645893 119.808751,122.052711 123.79003,119.70117 C126.618834,118.027551 129.447637,114.701497 130.767745,111.481369 C131.480185,109.76538 132.192624,106.629992 132.192624,105.125853 C132.192624,104.15134 132.255487,104.02423 133.428916,102.859052 C134.120401,102.18113 134.769978,101.439653 134.895703,101.227803 C135.105244,100.825287 135.08429,100.825287 134.015631,101.185433 C132.234532,101.820984 131.983083,101.736244 132.863155,100.782916 C133.512732,100.104995 134.288034,98.8762616 134.288034,98.5161156 C134.288034,98.4525605 133.973723,98.5584857 133.617503,98.7491512 C133.240329,98.9610018 132.402165,99.2787776 131.773542,99.4694431 L130.642021,99.829589 L129.61527,99.1304822 C129.049509,98.7491512 128.253254,98.3254501 127.834172,98.1983398 C126.765512,97.901749 125.131093,97.9441191 124.167204,98.28308 Z" id="Twitter-copy" fill="#99BFDC" sketch:type="MSShapeGroup"></path>
            <path d="M200,140 C216.568543,140 230,126.568543 230,110 C230,93.4314567 216.568543,80 200,80 C183.431457,80 170,93.4314567 170,110 C170,126.568543 183.431457,140 200,140 Z M187.543454,110.56854 C187.102007,109.291898 186.906455,107.829752 186.906455,106.196372 C186.906455,103.296814 187.826134,102.20282 189.06044,100.65696 C188.116559,97.351197 189.39927,95.0918628 189.39927,95.0918628 C189.39927,95.0918628 191.383841,94.6875608 195.135165,97.3274146 C197.16814,96.4712458 202.589408,96.3998984 205.154829,97.1371548 C206.727965,96.1145088 209.608014,94.6637784 210.769714,95.0699829 C211.084341,95.5675121 211.762,97.0182425 211.18115,100.205093 C211.57516,100.904297 213.625561,102.39308 213.633305,106.602576 C213.60039,108.155096 213.435816,109.465985 213.13087,110.574248 C213.188904,110.573774 212.741417,111.948497 212.635211,111.94507 C211.275054,114.880682 208.485037,115.976673 203.976672,116.432345 C205.43751,117.336079 205.85669,118.470027 205.85669,121.537965 C205.85669,124.605903 205.815062,125.017816 205.824743,125.723679 C205.840233,126.88141 207.567294,127.436017 207.502432,127.808926 C207.437571,128.180884 206.057083,128.120952 205.41234,127.899299 C203.584598,127.273345 203.767566,125.778854 203.767566,125.778854 L203.706577,121.676855 C203.706577,121.676855 203.831459,119.468891 203.000844,119.468891 L203.000844,126.183156 C203.000844,127.642448 204.041533,128.085754 204.041533,128.62514 C204.041533,129.552656 202.142153,128.537621 201.556463,127.959231 C200.664858,127.07928 200.766507,125.212832 200.787805,123.737368 C200.808134,122.312322 200.774251,119.194917 200.774251,119.194917 L200.169199,119.207283 C200.169199,119.207283 200.417029,126.016679 199.849732,127.257173 C199.115924,128.850598 196.901917,129.398546 196.901917,128.672705 C196.901917,128.184689 197.446948,128.33975 197.74899,127.245757 C198.006501,126.315387 197.918405,119.373761 197.918405,119.373761 C197.918405,119.373761 197.2088,119.785673 197.2088,121.086098 C197.2088,121.68066 197.192342,125.080601 197.192342,126.091832 C197.192342,127.364669 195.352984,128.089559 194.469123,128.089559 C194.021869,128.089559 193.465221,128.067679 193.465221,127.834611 C193.465221,127.245757 195.146782,126.900436 195.146782,125.676114 C195.146782,124.614465 195.123548,121.883286 195.123548,121.883286 C195.123548,121.883286 194.275507,122.025981 193.065402,122.025981 C190.015939,122.025981 189.051728,120.113871 188.592856,119.04366 C187.995549,117.650008 187.221082,116.995514 186.398211,116.4723 C185.892871,116.150761 185.776701,115.772144 186.361424,115.663696 C189.06044,115.164264 189.750684,118.671702 191.553256,119.231066 C192.839839,119.62966 194.494293,119.457475 195.317164,118.934261 C195.42559,117.863098 196.211674,116.936534 196.866098,116.448517 C192.281254,116.015676 189.562876,114.45079 188.153346,111.935557 C188.135504,111.935978 187.489338,110.568409 187.543454,110.56854 Z" id="Github-copy" fill="#99BFDC" sketch:type="MSShapeGroup"></path>
            <path d="M280,140 C296.568543,140 310,126.568543 310,110 C310,93.4314567 296.568543,80 280,80 C263.431457,80 250,93.4314567 250,110 C250,126.568543 263.431457,140 280,140 Z M272.353556,124.136954 L265.564711,124.136954 L265.564711,103.709814 L272.353556,103.709814 L272.353556,124.136954 L272.353556,124.136954 Z M268.959269,100.921689 L268.915885,100.921689 C266.636712,100.921689 265.163269,99.3522579 265.163269,97.3908761 C265.163269,95.3880081 266.681588,93.862504 269.004009,93.862504 C271.326431,93.862504 272.756625,95.3880081 272.800687,97.3908761 C272.800687,99.3522579 271.326431,100.921689 268.959269,100.921689 Z M296.836459,124.136954 L290.047885,124.136954 L290.047885,113.208423 C290.047885,110.46341 289.065499,108.590289 286.607909,108.590289 C284.732347,108.590289 283.615198,109.853046 283.124548,111.07269 C282.945045,111.509788 282.900983,112.118796 282.900983,112.729296 L282.900983,124.137496 L276.111323,124.137496 C276.111323,124.137496 276.200804,105.627134 276.111323,103.710357 L282.900983,103.710357 L282.900983,106.60369 C283.802022,105.212813 285.415787,103.230146 289.020217,103.230146 C293.48759,103.230146 296.836731,106.150323 296.836731,112.424656 L296.836459,124.136954 Z" id="LinkedIN-copy" fill="#99BFDC" sketch:type="MSShapeGroup"></path>
            <path d="M360,140 C376.568543,140 390,126.568543 390,110 C390,93.4314567 376.568543,80 360,80 C343.431457,80 330,93.4314567 330,110 C330,126.568543 343.431457,140 360,140 Z M343,100.516129 L343,121.483871 L352.488372,110.913356 L343,100.516129 Z M377,121.483871 L377,100.516129 L367.511628,111.086644 L377,121.483871 Z M345.372093,124 L374.627907,124 L365.201034,113.275516 C365.201034,113.275516 362.833174,116.717493 360.162532,116.671602 C357.49189,116.625712 354.798966,113.096774 354.798966,113.096774 L345.372093,124 Z M345.372093,98 C345.372093,98 359.239714,113.588983 360.230258,113.07506 C361.220802,113.76029 375.418605,98 375.418605,98 L345.372093,98 Z" id="Mail-copy" fill="#99BFDC" sketch:type="MSShapeGroup"></path>
            <path d="M273.734408,172.63961 C273.303118,172.286363 272.65559,172.332718 272.280522,172.751625 L264,182 L272.280522,191.248375 C272.652191,191.663486 273.23643,191.652386 273.586184,191.222688 L274.355677,190.277312 C274.705105,189.848014 274.665958,189.187283 274.274772,188.807861 L267.255814,182 L274.302159,174.406194 C274.681144,173.997765 274.643182,173.383939 274.207453,173.027056 L273.734408,172.63961 Z M288.941393,191.214112 C289.360092,191.582196 290.008844,191.558468 290.398303,191.152905 L298.996544,182.19915 L291.043831,172.667424 C290.686875,172.239594 290.102604,172.230298 289.738067,172.647527 L288.93605,173.565473 C288.571853,173.982314 288.587916,174.644009 288.965622,175.036852 L295.742714,182.085524 L288.435641,189.42879 C288.042633,189.823745 288.05915,190.438521 288.482159,190.810393 L288.941393,191.214112 Z M277.146406,191.464144 C276.628858,191.279842 276.386878,190.713077 276.601889,190.207734 L283.956251,172.922701 C284.17307,172.413107 284.774177,172.151467 285.285941,172.33371 L285.853594,172.535856 C286.371142,172.720158 286.613122,173.286923 286.398111,173.792266 L279.043749,191.077299 C278.82693,191.586893 278.225823,191.848533 277.714059,191.66629 L277.146406,191.464144 Z" id="Website-Icon" fill="#0067AA" sketch:type="MSShapeGroup"></path>
            <path d="M139.911062,191.073898 C138.95714,193.165424 138.500081,194.098983 137.272336,195.947797 C135.558022,198.528814 133.142336,201.743729 130.148807,201.770847 C127.48812,201.795254 126.805277,200.058305 123.195473,200.077288 C119.584983,200.097627 118.831454,201.801356 116.170767,201.776949 C113.177238,201.749831 110.887826,198.847458 109.173513,196.266441 C104.379885,189.049492 103.878905,180.578983 106.835375,176.07661 C108.936062,172.875932 112.250081,171.00339 115.366454,171.00339 C118.539787,171.00339 120.534101,172.724068 123.157728,172.724068 C125.702434,172.724068 127.252728,171 130.922238,171 C133.694101,171 136.632042,172.493559 138.725865,175.075932 C131.866552,178.793898 132.980375,188.48339 139.911062,191.073898 Z M127.828935,168.032542 C129.160994,166.339661 130.173935,163.950508 129.806778,161.508475 C127.629229,161.656271 125.082465,163.026441 123.595994,164.812881 C122.245406,166.434576 121.131582,168.839322 121.565994,171.176271 C123.941876,171.249492 126.401484,169.845424 127.828935,168.032542 Z" id="Apple-Logo" fill="#0067AA" sketch:type="MSShapeGroup"></path>
            <path d="M189.574409,180.56854 C189.132962,179.291898 188.93741,177.829752 188.93741,176.196372 C188.93741,173.296814 189.857089,172.20282 191.091396,170.65696 C190.147514,167.351197 191.430225,165.091863 191.430225,165.091863 C191.430225,165.091863 193.414796,164.687561 197.16612,167.327415 C199.199095,166.471246 204.620363,166.399898 207.185785,167.137155 C208.75892,166.114509 211.638969,164.663778 212.800669,165.069983 C213.115296,165.567512 213.792955,167.018243 213.212105,170.205093 C213.606115,170.904297 215.656516,172.39308 215.66426,176.602576 C215.631345,178.155096 215.466771,179.465985 215.161825,180.574248 C215.219859,180.573774 214.772372,181.948497 214.666166,181.94507 C213.306009,184.880682 210.515992,185.976673 206.007627,186.432345 C207.468465,187.336079 207.887645,188.470027 207.887645,191.537965 C207.887645,194.605903 207.846018,195.017816 207.855698,195.723679 C207.871188,196.88141 209.598249,197.436017 209.533387,197.808926 C209.468526,198.180884 208.088038,198.120952 207.443295,197.899299 C205.615553,197.273345 205.798521,195.778854 205.798521,195.778854 L205.737532,191.676855 C205.737532,191.676855 205.862414,189.468891 205.031799,189.468891 L205.031799,196.183156 C205.031799,197.642448 206.072488,198.085754 206.072488,198.62514 C206.072488,199.552656 204.173109,198.537621 203.587418,197.959231 C202.695813,197.07928 202.797462,195.212832 202.81876,193.737368 C202.839089,192.312322 202.805206,189.194917 202.805206,189.194917 L202.200154,189.207283 C202.200154,189.207283 202.447984,196.016679 201.880687,197.257173 C201.146879,198.850598 198.932872,199.398546 198.932872,198.672705 C198.932872,198.184689 199.477903,198.33975 199.779945,197.245757 C200.037456,196.315387 199.94936,189.373761 199.94936,189.373761 C199.94936,189.373761 199.239755,189.785673 199.239755,191.086098 C199.239755,191.68066 199.223297,195.080601 199.223297,196.091832 C199.223297,197.364669 197.383939,198.089559 196.500078,198.089559 C196.052824,198.089559 195.496176,198.067679 195.496176,197.834611 C195.496176,197.245757 197.177737,196.900436 197.177737,195.676114 C197.177737,194.614465 197.154503,191.883286 197.154503,191.883286 C197.154503,191.883286 196.306462,192.025981 195.096357,192.025981 C192.046894,192.025981 191.082683,190.113871 190.623811,189.04366 C190.026504,187.650008 189.252037,186.995514 188.429166,186.4723 C187.923826,186.150761 187.807656,185.772144 188.392379,185.663696 C191.091396,185.164264 191.781639,188.671702 193.584211,189.231066 C194.870794,189.62966 196.525248,189.457475 197.34812,188.934261 C197.456545,187.863098 198.242629,186.936534 198.897053,186.448517 C194.312209,186.015676 191.593831,184.45079 190.184301,181.935557 C190.166459,181.935978 189.520293,180.568409 189.574409,180.56854 Z" id="Shape" fill="#0067AA" sketch:type="MSShapeGroup"></path>
        </g>
    </g>
</svg>